<svg width="20" height="20" viewBox="0 0 20 20" fill="none" xmlns="http://www.w3.org/2000/svg">
<path d="M5.01328 3.75147C4.68729 3.75114 4.36444 3.8151 4.0632 3.9397C3.76196 4.0643 3.48826 4.24709 3.25775 4.4776C3.02724 4.70811 2.84445 4.98181 2.71985 5.28305C2.59525 5.58429 2.53129 5.90714 2.53162 6.23313C2.53162 8.09397 5.01328 10.8415 5.01328 10.8415C5.01328 10.8415 7.49495 8.09397 7.49495 6.23313C7.49528 5.90714 7.43131 5.58429 7.30671 5.28305C7.18212 4.98181 6.99933 4.70811 6.76882 4.4776C6.53831 4.24709 6.2646 4.0643 5.96337 3.9397C5.66213 3.8151 5.33927 3.75114 5.01328 3.75147V3.75147ZM5.01328 7.11897C4.83808 7.11897 4.66682 7.06701 4.52114 6.96968C4.37547 6.87234 4.26193 6.73399 4.19488 6.57213C4.12783 6.41026 4.11029 6.23215 4.14447 6.06032C4.17865 5.88848 4.26302 5.73064 4.38691 5.60675C4.51079 5.48287 4.66863 5.3985 4.84047 5.36432C5.0123 5.33014 5.19041 5.34768 5.35228 5.41473C5.51414 5.48178 5.65249 5.59532 5.74983 5.74099C5.84716 5.88666 5.89912 6.05793 5.89912 6.23313C5.8989 6.468 5.8055 6.69319 5.63942 6.85927C5.47334 7.02535 5.24815 7.11875 5.01328 7.11897V7.11897Z" fill="url(#paint0_radial_229_1273)"/>
<path d="M17.52 9.41341V5.83008C17.5142 5.45379 17.457 5.08006 17.35 4.71925C17.0766 3.76535 16.4715 2.94048 15.6436 2.3933C14.8158 1.84612 13.8198 1.6126 12.835 1.73484C11.8503 1.85708 10.9416 2.32704 10.2726 3.06001C9.60374 3.79299 9.21863 4.74078 9.18672 5.73258V5.93925L9.17838 6.66425V14.9576H9.17505V14.9917C9.17505 15.4338 8.99945 15.8577 8.68689 16.1703C8.37433 16.4828 7.95041 16.6584 7.50838 16.6584C7.06635 16.6584 6.64243 16.4828 6.32987 16.1703C6.01731 15.8577 5.84172 15.4338 5.84172 14.9917C5.84172 14.9817 5.84422 14.9717 5.84505 14.9609H5.84172V13.3417H4.17505V15.0084H4.17672C4.17727 15.892 4.52881 16.7392 5.15401 17.3636C5.77921 17.9881 6.62685 18.3385 7.51047 18.338C8.39408 18.3374 9.24128 17.9859 9.8657 17.3607C10.4901 16.7355 10.8406 15.8879 10.84 15.0042H10.8417V14.1859H10.8459V7.49758L10.8542 5.93925V5.73341C10.878 5.07738 11.1587 4.45699 11.6359 4.00614C12.113 3.5553 12.7483 3.31015 13.4047 3.3236C14.061 3.33706 14.6857 3.60804 15.144 4.07806C15.6023 4.54809 15.8574 5.17946 15.8542 5.83591V9.39841C15.5351 9.57898 15.2845 9.85979 15.1412 10.1973C14.9979 10.5348 14.97 10.9102 15.0617 11.2652C15.1535 11.6201 15.3598 11.9349 15.6487 12.1607C15.9376 12.3865 16.2929 12.5107 16.6596 12.514C17.0262 12.5173 17.3837 12.3996 17.6766 12.179C17.9695 11.9584 18.1815 11.6474 18.2796 11.2941C18.3778 10.9408 18.3566 10.565 18.2194 10.225C18.0822 9.88497 17.8367 9.59969 17.5209 9.41341H17.52Z" fill="url(#paint1_radial_229_1273)"/>
<defs>
<radialGradient id="paint0_radial_229_1273" cx="0" cy="0" r="1" gradientUnits="userSpaceOnUse" gradientTransform="translate(7.49495 10.8415) rotate(-124.994) scale(8.65464 21.0691)">
<stop stop-color="#199FE3"/>
<stop offset="1" stop-color="#44BFFE"/>
</radialGradient>
<radialGradient id="paint1_radial_229_1273" cx="0" cy="0" r="1" gradientUnits="userSpaceOnUse" gradientTransform="translate(18.3404 18.338) rotate(-130.416) scale(21.8489 55.8845)">
<stop stop-color="#199FE3"/>
<stop offset="1" stop-color="#44BFFE"/>
</radialGradient>
</defs>
</svg>
