<svg width="66" height="96" viewBox="0 0 66 96" fill="none" xmlns="http://www.w3.org/2000/svg">
<ellipse cx="33" cy="32.5" rx="33" ry="32.5" fill="#343434"/>
<path d="M33 54.5C45.3921 54.5 55.5 44.6841 55.5 32.5C55.5 20.3159 45.3921 10.5 33 10.5C20.6079 10.5 10.5 20.3159 10.5 32.5C10.5 44.6841 20.6079 54.5 33 54.5Z" fill="#343434" stroke="#EBBC41" stroke-width="3"/>
<path d="M14.5397 82.153V76.7H16.7247V90H14.5397V84.243H8.83971V90H6.65471V76.7H8.83971V82.153H14.5397ZM26.7742 81.849V80.5H28.8262V90H26.7742V88.632C26.0016 89.7087 24.8932 90.247 23.4492 90.247C22.1446 90.247 21.0299 89.7657 20.1052 88.803C19.1806 87.8403 18.7182 86.656 18.7182 85.25C18.7182 83.844 19.1806 82.6597 20.1052 81.697C21.0299 80.7343 22.1446 80.253 23.4492 80.253C24.8932 80.253 26.0016 80.785 26.7742 81.849ZM21.6252 87.435C22.1952 88.005 22.9109 88.29 23.7722 88.29C24.6336 88.29 25.3492 88.005 25.9192 87.435C26.4892 86.8523 26.7742 86.124 26.7742 85.25C26.7742 84.376 26.4892 83.654 25.9192 83.084C25.3492 82.5013 24.6336 82.21 23.7722 82.21C22.9109 82.21 22.1952 82.5013 21.6252 83.084C21.0552 83.654 20.7702 84.376 20.7702 85.25C20.7702 86.1113 21.0552 86.8397 21.6252 87.435ZM31.959 80.5H39.236V90H37.184V82.476H34.011V86.01C34.011 87.492 33.688 88.556 33.042 89.202C32.396 89.848 31.4523 90.114 30.211 90V88.081C30.7937 88.1823 31.2307 88.062 31.522 87.72C31.8133 87.3653 31.959 86.7637 31.959 85.915V80.5ZM43.6412 86.523L48.5052 80.5H50.0822V90H48.0682V83.958L43.2042 90H41.6272V80.5H43.6412V86.523ZM53.2041 80.5H60.4811V90H58.4291V82.476H55.2561V86.01C55.2561 87.492 54.9331 88.556 54.2871 89.202C53.6411 89.848 52.6974 90.114 51.4561 90V88.081C52.0388 88.1823 52.4758 88.062 52.7671 87.72C53.0584 87.3653 53.2041 86.7637 53.2041 85.915V80.5Z" fill="#343434"/>
</svg>
