<svg width="195" height="193" viewBox="0 0 195 193" fill="none" xmlns="http://www.w3.org/2000/svg">
<path d="M41.3765 141.26C40.744 140.152 40.3646 138.908 40.3249 137.634C40.2456 135.028 41.6691 132.389 43.9781 131.179C45.8528 130.197 48.1372 130.189 50.1478 130.845C52.1622 131.5 53.9255 132.765 55.4661 134.216C56.1457 134.858 56.814 135.604 57.1935 136.444C58.1261 134.66 60.0009 133.357 62.0247 133.238C64.564 133.089 67.0976 134.822 67.881 137.243C68.3304 138.623 68.2454 140.12 67.9905 141.549C67.9377 141.834 67.8735 142.127 67.7866 142.41C68.4871 142.533 69.178 142.706 69.8332 142.98C70.6676 143.329 71.4303 143.826 72.1628 144.351C73.373 145.214 74.5341 146.169 75.4478 147.334H15.2646C23.2071 143.012 32.3428 140.881 41.3765 141.26Z" fill="#C5E8FA"/>
<path d="M85.9712 26.416C74.3057 34.7795 58.4623 40.094 41.707 42.4199C35.6109 43.2657 29.3581 43.7131 23.0751 43.6697C24.0323 72.2831 30.4927 101.044 43.9423 127.271C57.1219 152.969 77.2717 176.09 102.528 192.3V6C99.6851 13.6876 93.8439 20.7711 85.9712 26.416Z" fill="white"/>
<path d="M158.845 44.8836C143.328 41.8781 128.661 35.9236 117.86 27.0881C110.571 21.1241 105.158 13.8047 102.528 6C99.8967 13.8047 94.4878 21.1241 87.2004 27.0881C76.3996 35.9236 61.7305 41.8781 46.2136 44.8836C40.5725 45.9768 34.7804 46.6772 28.9618 46.8886C29.851 75.4623 35.832 103.962 48.2847 129.646C60.4863 154.81 79.1428 177.114 102.528 192.302C125.914 177.116 144.571 154.812 156.772 129.646C169.229 103.962 175.21 75.4623 176.097 46.8886C170.28 46.6753 164.486 45.9749 158.845 44.8836Z" fill="#2A878E"/>
<path d="M160.722 56.198C150.138 54.1496 140.391 50.925 131.742 46.7395C110.322 71.8092 84.9159 93.577 55.4095 106.951C57.5486 113.023 59.9613 118.928 62.7196 124.614C68.474 136.48 75.5631 147.326 83.7473 156.919C111.892 141.649 137.77 122.204 160.255 99.4069C164.256 86.1876 166.882 72.1623 168.047 57.3987C165.611 57.0721 163.163 56.67 160.722 56.198Z" fill="#014063"/>
<g opacity="0.16">
<path d="M105.371 19.5195L107.22 29.3103L108.813 39.1483L110.108 49.0353L111.184 58.9488C112.461 72.1888 112.978 85.4968 113.035 98.7991C112.914 112.101 112.33 125.406 110.992 138.64L109.863 148.55L108.52 158.429L106.88 168.26L104.984 178.041C104.884 178.556 104.388 178.894 103.869 178.794C103.37 178.698 103.042 178.232 103.108 177.735V177.712L104.431 167.884L105.583 158.044L106.614 148.195L107.441 138.328C108.42 125.168 109.026 111.981 108.97 98.7896C109.093 85.5968 108.547 72.4078 107.633 59.2433L106.857 49.3733L105.874 39.5202L104.771 29.6728L103.495 19.8386L103.491 19.8178C103.425 19.2968 103.791 18.8191 104.314 18.7512C104.814 18.687 105.277 19.0287 105.371 19.5195Z" fill="white"/>
<path d="M70.8093 68.0203C78.4894 69.0077 86.6584 66.1116 93.7041 63.2854C99.2508 61.0596 105.545 58.5675 109.785 54.2121C110.918 53.0453 109.006 51.2367 108.03 52.4601C103.674 57.9275 94.2535 60.733 87.8893 62.8153C82.2331 64.6617 76.222 65.5358 70.7829 67.9316C70.7357 67.9524 70.7696 68.0166 70.8093 68.0203Z" fill="white"/>
<path d="M108.292 53.8664C111.167 58.1218 117.348 61.0556 121.825 63.1871C126.165 65.2525 131.279 67.2933 136.179 66.91C136.479 66.8855 136.596 66.406 136.258 66.3475C125.855 64.5917 118.1 57.5988 108.945 53.2132C108.549 53.0263 107.999 53.436 108.292 53.8664Z" fill="white"/>
</g>
<path d="M123.201 89.0704C123.201 103.594 114.375 111.293 103.608 111.293C92.4657 111.293 84.6403 102.654 84.6403 89.8841C84.6403 76.4874 92.966 67.7236 104.233 67.7236C115.751 67.7236 123.201 76.5497 123.201 89.0704ZM90.4626 89.7595C90.4626 98.7743 95.3448 106.849 103.922 106.849C112.559 106.849 117.441 98.8989 117.441 89.3215C117.441 80.9334 113.059 72.1697 103.984 72.1697C94.9691 72.1697 90.4626 80.4935 90.4626 89.7595Z" fill="white"/>
<path d="M121.353 127.762C122.263 128.347 124.381 129.257 126.607 129.257C130.734 129.257 132.008 126.629 131.972 124.658C131.934 121.337 128.944 119.912 125.84 119.912H124.052V117.503H125.84C128.178 117.503 131.134 116.298 131.134 113.489C131.134 111.592 129.93 109.912 126.973 109.912C125.076 109.912 123.25 110.75 122.227 111.48L121.39 109.145C122.629 108.233 125.04 107.321 127.594 107.321C132.267 107.321 134.383 110.095 134.383 112.979C134.383 115.424 132.924 117.505 130.005 118.564V118.637C132.924 119.221 135.297 121.411 135.297 124.734C135.297 128.528 132.34 131.851 126.646 131.851C123.983 131.851 121.647 131.011 120.477 130.244L121.353 127.762Z" fill="white"/>
<path d="M186.641 128.683C186.641 141.217 174.356 149.165 161.822 149.165C149.29 149.165 137.177 141.217 137.177 128.683C137.177 116.149 149.29 103.944 161.822 103.944C174.356 103.944 186.641 116.149 186.641 128.683Z" fill="#EBBC41"/>
<g opacity="0.25">
<path d="M186.641 128.683C186.641 141.217 174.356 149.165 161.822 149.165C149.29 149.165 137.177 141.217 137.177 128.683C137.177 116.149 149.29 103.944 161.822 103.944C174.356 103.944 186.641 116.149 186.641 128.683Z" fill="#EBBC41"/>
</g>
<path d="M181.6 127.033C181.6 137.686 171.162 144.441 160.506 144.441C149.855 144.441 139.556 137.686 139.556 127.033C139.556 116.379 149.855 106.003 160.506 106.003C171.16 106.003 181.6 116.379 181.6 127.033Z" fill="#EBBC41"/>
<g opacity="0.19">
<path d="M170.191 122.406C170.191 129.298 163.436 133.671 156.543 133.671C149.651 133.671 142.986 129.298 142.986 122.406C142.986 115.513 149.649 108.797 156.543 108.797C163.438 108.797 170.191 115.511 170.191 122.406Z" fill="#EBBC41"/>
</g>
<path d="M189.427 35.7425C185.35 33.7092 180.845 32.6595 176.327 32.1063C174.033 31.8269 171.732 31.6759 169.429 31.6098C169.255 30.2241 168.881 28.8685 168.211 27.6489C167.201 25.8139 165.468 24.313 163.41 23.8976C162.172 23.6484 160.892 23.7938 159.638 23.941C159.077 24.0052 158.505 24.0751 158.003 24.3262C157.565 24.5471 157.204 24.8963 156.891 25.2777C156.196 20.9506 155.116 16.7141 152.887 12.9779C152.075 11.6186 151.076 10.3046 149.687 9.54375C148.04 8.64133 146.028 8.62623 144.208 9.07744C140.428 10.012 137.259 12.8646 135.557 16.3667C134.636 18.2622 134.123 20.3276 133.96 22.4307C133.364 22.1891 132.746 21.9984 132.12 21.8681C127.683 20.943 122.886 22.7366 119.818 26.0706C118.904 27.0675 118.111 28.2191 117.756 29.5255C117.637 29.9654 117.577 30.4279 117.575 30.8886C114.664 30.9169 111.811 31.6721 109.455 33.3637C107.699 34.6229 106.238 36.4636 105.97 38.6083C105.955 38.7159 105.947 38.8254 105.942 38.9368H194.37C192.858 37.687 191.183 36.6185 189.427 35.7425Z" fill="#C5E8FA"/>
<path d="M19.7496 14.1003C19.6155 13.5113 19.5891 12.8958 19.6797 12.2955C19.9081 10.7757 20.8408 9.45604 21.8546 8.29874C22.4436 7.63041 23.095 6.97342 23.9294 6.6638C24.6808 6.38438 25.5153 6.41271 26.3082 6.5392C27.5674 6.74121 28.8078 7.1962 29.7933 8.00423C29.8726 7.63986 29.9689 7.28115 30.084 6.92622C31.1167 3.7564 33.7882 1.1454 37.0108 0.29584C40.2335 -0.54995 43.9036 0.448759 46.1654 2.89551C47.8381 4.70414 48.6555 7.2585 48.4214 9.69581C48.6442 9.69203 48.8651 9.6958 49.086 9.69958C49.9544 9.71846 50.8399 9.76377 51.6517 10.0677C52.7089 10.4623 53.5925 11.3024 54.038 12.3389C54.3873 13.1507 54.4647 14.0739 54.2702 14.9348C54.3948 14.9442 54.5156 14.9537 54.6365 14.9669C55.2821 15.0462 55.9165 15.1915 56.5452 15.3577C57.8894 15.7164 59.2222 16.1921 60.3625 16.9907C60.9912 17.4325 61.5576 17.9819 61.9899 18.6143H0C5.81103 14.9272 12.9134 13.3206 19.7496 14.1003Z" fill="#C5E8FA"/>
</svg>
