<svg width="191" height="178" viewBox="0 0 191 178" fill="none" xmlns="http://www.w3.org/2000/svg">
<rect x="26.5" y="1.5" width="146" height="175" rx="8.5" stroke="#C5E8FA" stroke-width="3"/>
<path d="M172.007 157.488L153.279 153.419L156.094 164.212C156.094 164.212 156.094 168.86 160.511 168.734C164.389 168.623 163.601 165.279 165.669 165.367C167.737 165.454 167.073 166.717 168.426 167.812C170.009 169.093 174.005 169.093 175.588 167.812C176.941 166.717 176.277 165.454 178.345 165.367C180.413 165.279 179.624 168.623 183.502 168.734C187.919 168.86 187.919 164.212 187.919 164.212L191 153.419L172.007 157.488Z" fill="#AADBFB"/>
<path d="M184.066 166.602C179.999 166.492 180.826 163.147 178.657 163.234C176.488 163.322 177.185 164.585 175.765 165.681C174.105 166.961 169.915 166.961 168.254 165.681C166.835 164.585 167.532 163.322 165.363 163.234C163.194 163.147 164.021 166.492 159.954 166.602C157.946 166.657 156.808 165.815 156.164 164.841C156.355 166.122 157.157 168.793 160.521 168.698C164.399 168.588 163.61 165.244 165.678 165.332C167.746 165.419 167.082 166.681 168.436 167.777C170.018 169.057 174.014 169.057 175.597 167.777C176.951 166.681 176.287 165.419 178.355 165.332C180.423 165.244 179.634 168.588 183.512 168.698C186.897 168.795 187.688 166.086 187.873 164.818C187.231 165.799 186.091 166.657 184.066 166.602Z" fill="#85C2F9"/>
<path d="M180.043 77.3862C178.763 76.2874 177.516 75.4762 177.074 74.2423C176.163 71.7031 176.113 64.4792 176.113 64.4792H168.166C168.166 64.4792 168.116 71.7031 167.206 74.2423C166.763 75.4762 165.517 76.2874 164.237 77.3862H180.043Z" fill="#AADBFB"/>
<path d="M189.87 90.5997C189.164 85.3603 184.667 80.6437 180.042 77.386H164.237C159.613 80.6437 155.115 85.3603 154.409 90.5997C153.703 95.8392 153.279 153.419 153.279 153.419L159.263 161.048H185.016L191 153.419C191 153.419 190.576 95.8392 189.87 90.5997Z" fill="#AADBFB"/>
<path d="M189.87 90.5997C189.164 85.3603 184.667 80.6437 180.043 77.386C178.763 76.2872 177.516 75.4761 177.074 74.2422C176.163 71.7029 176.113 64.4778 176.113 64.4778H173.318C173.318 64.4778 173.368 71.7029 174.279 74.2422C174.722 75.4761 175.968 76.2872 177.248 77.386C181.872 80.6437 186.369 85.3603 187.076 90.5997C187.782 95.8392 188.205 153.419 188.205 153.419C188.205 153.419 187.541 166.913 182.246 168.553C182.601 168.655 183.015 168.72 183.502 168.734C187.92 168.86 187.92 164.212 187.92 164.212L191 153.419C191 153.419 190.576 95.8392 189.87 90.5997Z" fill="#85C2F9"/>
<path d="M189.317 153.419H157.762L189.317 155.565V153.419Z" fill="#85C2F9"/>
<path d="M176.283 68.8H167.996C167.343 68.8 166.812 68.2689 166.812 67.6154V63.4045C166.812 62.751 167.343 62.2212 167.996 62.2212H176.283C176.937 62.2212 177.467 62.751 177.467 63.4045V67.6154C177.467 68.2689 176.937 68.8 176.283 68.8Z" fill="#304298"/>
<path d="M176.77 70.3101H167.605C167.375 70.3101 167.188 70.1241 167.188 69.893V69.7523C167.188 69.5212 167.375 69.3354 167.605 69.3354H176.77C177.001 69.3354 177.188 69.5212 177.188 69.7523V69.893C177.188 70.1241 177.001 70.3101 176.77 70.3101Z" fill="#304298"/>
<path d="M167.744 68.8H168.472V63.1689H167.744V68.8Z" fill="#223466"/>
<path d="M169.316 68.8H170.044V63.1689H169.316V68.8Z" fill="#223466"/>
<path d="M171.12 68.8H171.848V63.1689H171.12V68.8Z" fill="#223466"/>
<path d="M172.867 68.8H173.595V63.1689H172.867V68.8Z" fill="#223466"/>
<path d="M174.469 68.8H175.196V63.1689H174.469V68.8Z" fill="#223466"/>
<path d="M175.749 68.8H176.477V63.1689H175.749V68.8Z" fill="#223466"/>
<path d="M176.482 62.8467H167.736C167.619 62.8467 167.524 62.7511 167.524 62.6342C167.524 62.517 167.619 62.4214 167.736 62.4214H176.482C176.599 62.4214 176.694 62.517 176.694 62.6342C176.694 62.7511 176.599 62.8467 176.482 62.8467Z" fill="#405CC6"/>
<path d="M170.983 88.3336C170.746 88.3336 170.509 88.3208 170.28 88.3039C167.93 88.1348 165.579 87.9647 163.229 87.7957C162.502 87.7434 161.76 87.6856 161.09 87.3462C160.421 87.0054 159.825 86.3209 159.707 85.4476C159.522 84.076 160.528 82.9437 161.41 82.0492C163.6 79.8253 165.934 79.3872 167.581 79.3872C168.187 79.3872 168.7 79.4463 169.078 79.4985C170.316 79.6676 171.727 79.6562 172.435 80.3195C173.691 81.4927 174.095 83.6406 173.889 85.5645C173.823 86.1844 173.695 86.8196 173.373 87.3096C172.821 88.1505 171.895 88.3336 170.983 88.3336Z" fill="#DBF0FD"/>
<path d="M170.261 77.386H168.55C168.39 77.2888 168.249 77.1579 168.177 76.9858C168.079 76.7521 168.123 76.4844 168.169 76.2354C168.45 74.693 168.731 73.1523 169.012 71.6099C169.097 71.1425 169.53 70.7817 170.005 70.7817C170.126 70.7817 170.251 70.8059 170.373 70.8565C171.007 71.1242 171.069 72.1211 171.098 72.6985C171.133 73.3788 171.167 74.0591 171.202 74.7381C171.238 75.4549 171.261 76.2269 170.872 76.8295C170.72 77.0648 170.506 77.2535 170.261 77.386Z" fill="#DBF0FD"/>
<path d="M169.382 77.6083C169.136 77.6083 168.89 77.5564 168.666 77.448C168.627 77.4294 168.588 77.4085 168.55 77.386H170.26C169.992 77.5296 169.687 77.6083 169.382 77.6083Z" fill="#DBF0FD"/>
<path d="M162.508 145.758C162.347 145.758 162.188 145.75 162.036 145.737C160.767 145.634 159.656 143.423 159.685 142.053C159.706 141.095 160.036 99.7364 159.996 96.4659C159.962 93.6969 161.46 92.6758 162.292 92.6758C162.443 92.6758 162.571 92.7084 162.665 92.7718C163.649 93.4266 164.082 95.0349 164.102 96.418C164.121 97.7997 164.963 139.36 164.884 142.55C164.816 145.332 163.603 145.758 162.508 145.758Z" fill="#DBF0FD"/>
<path d="M160.089 164.527C159.699 164.527 159.288 164.356 159.003 164.08C158.516 163.606 158.306 162.925 158.114 162.272C157.89 161.509 157.226 159.774 157.04 158.213L159.264 161.048H161.747C161.605 161.877 161.419 162.656 161.276 163.277C161.196 163.626 161.095 163.992 160.838 164.243C160.635 164.44 160.367 164.527 160.089 164.527Z" fill="#DBF0FD"/>
<path d="M161.747 161.048H159.263L157.04 158.213C156.849 156.619 157.156 155.208 158.94 155.208C159.047 155.208 159.159 155.212 159.276 155.223C162.206 155.481 162.184 158.496 161.747 161.048Z" fill="#DBF0FD"/>
<path d="M169.851 164.527C169.639 164.527 169.401 164.419 169.231 164.284C168.674 163.843 168.343 163.202 168.081 162.564C167.879 162.067 167.709 161.56 167.556 161.048H170.418C170.436 162.009 170.407 162.97 170.333 163.927C170.32 164.096 170.299 164.278 170.176 164.402C170.088 164.491 169.974 164.527 169.851 164.527Z" fill="#DBF0FD"/>
<path d="M170.418 161.049H167.556C167.375 160.439 167.219 159.822 167.064 159.205C166.842 158.327 165.956 156.584 166.707 155.791C166.986 155.495 167.439 155.38 167.898 155.38C168.301 155.38 168.71 155.47 169.01 155.605C170.225 156.154 170.154 157.461 170.268 158.572C170.352 159.397 170.402 160.222 170.418 161.049Z" fill="#DBF0FD"/>
<path d="M64.6116 92.206C65.1428 92.206 65.5733 91.7735 65.5733 91.2449V82.3014C65.5733 81.7725 65.1428 81.34 64.6116 81.34H62.9521V79.0523C62.9521 68.5562 54.0766 59.6699 41.8415 56.681V44.9307H23.7327V56.681C11.4955 59.6699 2.61988 68.5562 2.61988 79.0523V81.34H0.960147C0.431167 81.34 0 81.7725 0 82.3014V91.2449C0 91.7735 0.431167 92.206 0.960147 92.206H2.61988V101.038H0.960147C0.431167 101.038 0 101.471 0 102V110.943C0 111.47 0.431167 111.903 0.960147 111.903H2.61988V120.737H0.960147C0.431167 120.737 0 121.168 0 121.697V130.64C0 131.169 0.431167 131.601 0.960147 131.601H2.61988V140.434H0.960147C0.431167 140.434 0 140.866 0 141.395V150.338C0 150.867 0.431167 151.3 0.960147 151.3H2.61988V152.252C2.61988 157.634 4.95511 162.592 8.87809 166.549H56.6946C60.617 162.592 62.9521 157.634 62.9521 152.252V151.3H64.6116C65.1428 151.3 65.5733 150.867 65.5733 150.338V141.395C65.5733 140.866 65.1428 140.434 64.6116 140.434H62.9521V131.601H64.6116C65.1428 131.601 65.5733 131.169 65.5733 130.64V121.697C65.5733 121.168 65.1428 120.737 64.6116 120.737H62.9521V111.903H64.6116C65.1428 111.903 65.5733 111.47 65.5733 110.943V102C65.5733 101.471 65.1428 101.038 64.6116 101.038H62.9521V92.206H64.6116Z" fill="#AADBFB"/>
<path d="M64.6116 92.206C65.1427 92.206 65.5733 91.7735 65.5733 91.2449V82.3014C65.5733 81.7725 65.1427 81.34 64.6116 81.34H62.9521V79.0523C62.9521 68.5562 54.0766 59.6699 41.8415 56.681V44.9307H34.9419V56.681C47.1775 59.6699 56.0534 68.5562 56.0534 79.0523V81.34H57.7129C58.2409 81.34 58.6746 81.7725 58.6746 82.3014V91.2449C58.6746 91.7735 58.2409 92.206 57.7129 92.206H56.0534V101.038H57.7129C58.2409 101.038 58.6746 101.471 58.6746 102V110.943C58.6746 111.47 58.2409 111.903 57.7129 111.903H56.0534V120.737H57.7129C58.2409 120.737 58.6746 121.168 58.6746 121.697V130.64C58.6746 131.169 58.2409 131.601 57.7129 131.601H56.0534V140.434H57.7129C58.2409 140.434 58.6746 140.866 58.6746 141.395V150.338C58.6746 150.867 58.2409 151.3 57.7129 151.3H56.0534V152.252C56.0534 157.634 53.7183 162.592 49.795 166.549H56.6946C60.617 162.592 62.9521 157.634 62.9521 152.252V151.3H64.6116C65.1427 151.3 65.5733 150.867 65.5733 150.338V141.395C65.5733 140.866 65.1427 140.434 64.6116 140.434H62.9521V131.601H64.6116C65.1427 131.601 65.5733 131.169 65.5733 130.64V121.697C65.5733 121.168 65.1427 120.737 64.6116 120.737H62.9521V111.903H64.6116C65.1427 111.903 65.5733 111.47 65.5733 110.943V102C65.5733 101.471 65.1427 101.038 64.6116 101.038H62.9521V92.206H64.6116Z" fill="#85C2F9"/>
<path d="M56.0533 92.2058C54.6045 92.7784 2.61975 92.2058 2.61975 92.2058L59.0359 95.6369L56.0533 92.2058Z" fill="#85C2F9"/>
<path d="M58.0114 111.792C56.5625 112.364 4.57788 111.792 4.57788 111.792L60.9941 115.224L58.0114 111.792Z" fill="#85C2F9"/>
<path d="M56.0533 131.561C54.6045 132.132 2.61975 131.561 2.61975 131.561L59.0359 134.992L56.0533 131.561Z" fill="#85C2F9"/>
<path d="M56.0533 151.175C54.6045 151.747 2.61975 151.175 2.61975 151.175L59.0359 154.606L56.0533 151.175Z" fill="#85C2F9"/>
<path d="M40.2006 84.5567H1.81436C1.28289 84.5567 0.848877 84.1229 0.848877 83.5924C0.848877 83.0609 1.28289 82.6272 1.81436 82.6272H40.2006C40.7324 82.6272 41.1664 83.0609 41.1664 83.5924C41.1664 84.1229 40.7324 84.5567 40.2006 84.5567Z" fill="#DBF0FD"/>
<path d="M40.2006 104.679H1.81436C1.28289 104.679 0.848877 104.246 0.848877 103.715C0.848877 103.184 1.28289 102.75 1.81436 102.75H40.2006C40.7324 102.75 41.1664 103.184 41.1664 103.715C41.1664 104.246 40.7324 104.679 40.2006 104.679Z" fill="#DBF0FD"/>
<path d="M40.2006 123.838H1.81436C1.28289 123.838 0.848877 123.402 0.848877 122.873C0.848877 122.342 1.28289 121.907 1.81436 121.907H40.2006C40.7324 121.907 41.1664 122.342 41.1664 122.873C41.1664 123.402 40.7324 123.838 40.2006 123.838Z" fill="#DBF0FD"/>
<path d="M40.2006 144.496H1.81436C1.28289 144.496 0.848877 144.062 0.848877 143.531C0.848877 143.001 1.28289 142.567 1.81436 142.567H40.2006C40.7324 142.567 41.1664 143.001 41.1664 143.531C41.1664 144.062 40.7324 144.496 40.2006 144.496Z" fill="#DBF0FD"/>
<path d="M15.5542 76.0798C15.0576 76.0798 14.556 76.0188 14.072 75.9308C13.0616 75.7448 11.9999 75.4047 11.3789 74.5853C10.7104 73.7025 10.7211 72.4849 10.8945 71.3906C11.4411 67.9246 13.44 64.7618 16.1954 62.6193C16.8479 62.1108 21.1587 59.884 23.4451 59.884C24.3619 59.884 24.9531 60.2423 24.8528 61.2104C24.7903 61.8207 24.1705 62.1828 23.673 62.5395C22.1867 63.604 21.3403 65.3574 20.8497 67.1203C20.3585 68.8818 20.162 70.7151 19.6453 72.4698C19.2899 73.6754 18.722 74.9122 17.6465 75.5643C17.0185 75.9443 16.2947 76.0798 15.5542 76.0798Z" fill="#DBF0FD"/>
<path d="M43.1192 51.0561H22.4539C21.9102 51.0561 21.468 50.6139 21.468 50.0702V43.4635C21.468 42.9182 21.9102 42.4775 22.4539 42.4775H43.1192C43.6642 42.4775 44.1051 42.9182 44.1051 43.4635V50.0702C44.1051 50.6139 43.6642 51.0561 43.1192 51.0561Z" fill="#304298"/>
<path d="M42.5737 54.773H22.8919C22.5499 54.773 22.2721 54.4951 22.2721 54.1532C22.2721 53.8115 22.5499 53.5337 22.8919 53.5337H42.5737C42.9157 53.5337 43.1935 53.8115 43.1935 54.1532C43.1935 54.4951 42.9157 54.773 42.5737 54.773Z" fill="#304298"/>
<path d="M22.4633 50.8407H23.0735V44.2881H22.4633V50.8407Z" fill="#223466"/>
<path d="M23.8236 50.8407H24.4339V44.2881H23.8236V50.8407Z" fill="#223466"/>
<path d="M25.1835 50.8407H25.7936V44.2881H25.1835V50.8407Z" fill="#223466"/>
<path d="M26.5437 50.8407H27.154V44.2881H26.5437V50.8407Z" fill="#223466"/>
<path d="M27.9052 50.8407H28.5155V44.2881H27.9052V50.8407Z" fill="#223466"/>
<path d="M29.2651 50.8407H29.8754V44.2881H29.2651V50.8407Z" fill="#223466"/>
<path d="M30.6254 50.8407H31.2356V44.2881H30.6254V50.8407Z" fill="#223466"/>
<path d="M31.9857 50.8407H32.5959V44.2881H31.9857V50.8407Z" fill="#223466"/>
<path d="M33.3459 50.8407H33.9561V44.2881H33.3459V50.8407Z" fill="#223466"/>
<path d="M34.707 50.8407H35.3173V44.2881H34.707V50.8407Z" fill="#223466"/>
<path d="M36.0673 50.8407H36.6775V44.2881H36.0673V50.8407Z" fill="#223466"/>
<path d="M37.4276 50.8407H38.0378V44.2881H37.4276V50.8407Z" fill="#223466"/>
<path d="M38.7878 50.8407H39.398V44.2881H38.7878V50.8407Z" fill="#223466"/>
<path d="M40.1478 50.8407H40.7581V44.2881H40.1478V50.8407Z" fill="#223466"/>
<path d="M41.5094 50.8407H42.1197V44.2881H41.5094V50.8407Z" fill="#223466"/>
<path d="M42.8696 50.8407H43.4799V44.2881H42.8696V50.8407Z" fill="#223466"/>
<path d="M42.9088 43.5502H22.5377C22.3912 43.5502 22.2721 43.4308 22.2721 43.2844C22.2721 43.1379 22.3912 43.0188 22.5377 43.0188H42.9088C43.0552 43.0188 43.1743 43.1379 43.1743 43.2844C43.1743 43.4308 43.0552 43.5502 42.9088 43.5502Z" fill="#405CC6"/>
<path d="M8.87805 166.549H30.8287V160.688C30.8287 160.688 30.7477 160.686 30.592 160.685H30.5685C29.4525 160.685 24.8349 160.78 18.5334 162.215C18.6528 162.923 18.5931 163.639 18.2106 164.234C17.7385 164.966 16.8573 165.331 15.9744 165.331C15.6884 165.331 15.4024 165.293 15.1296 165.216C14.286 164.98 13.5864 164.461 12.9855 163.817C9.04084 165.315 8.87805 166.549 8.87805 166.549Z" fill="#9DD2FA"/>
<path d="M49.7949 166.549H30.8287V160.688C30.8287 160.688 30.9171 160.685 31.0877 160.685C32.2839 160.685 37.5049 160.795 44.5102 162.546C48.0157 163.422 50.0363 164.299 51.2008 165.007C50.7576 165.536 50.2893 166.051 49.7949 166.549Z" fill="#9DD2FA"/>
<path d="M52.7785 166.549H49.7949C50.2893 166.051 50.7576 165.536 51.2008 165.007C52.6967 165.917 52.7785 166.549 52.7785 166.549Z" fill="#85C2F9"/>
<path d="M12.9855 163.816C12.4663 163.26 12.0216 162.612 11.6202 161.972C10.7672 160.608 9.99405 159.193 9.335 157.725C8.58512 156.057 7.67806 153.065 10.4891 152.916C10.5541 152.913 10.6167 152.912 10.6789 152.912C13.1904 152.912 14.0299 155.642 15.3574 157.289C15.7861 157.822 16.3012 158.278 16.7541 158.789C17.3249 159.433 17.7957 160.167 18.1442 160.955C18.319 161.351 18.4601 161.781 18.5333 162.215C18.0805 162.318 17.6181 162.429 17.1473 162.546C15.4279 162.975 14.0651 163.405 12.9855 163.816Z" fill="#DBF0FD"/>
<path d="M15.9744 165.331C15.6884 165.331 15.4024 165.293 15.1296 165.216C14.286 164.98 13.5864 164.46 12.9855 163.816C14.0651 163.405 15.4279 162.976 17.1473 162.546C17.6181 162.429 18.0805 162.318 18.5333 162.215C18.6528 162.923 18.5931 163.639 18.2106 164.234C17.7385 164.966 16.8572 165.331 15.9744 165.331Z" fill="#D6ECFD"/>
<path d="M136.382 122.27C136.382 122.27 124.112 122.27 122.336 116.355C121.002 111.909 121.472 86.4903 122.5 84.1207C125 78.3523 136.382 79.2402 136.382 79.2402V122.27ZM142.042 72.6327C142.941 72.6327 143.68 71.8953 143.68 70.9927V57.419C143.68 56.5159 142.941 55.7766 142.042 55.7766H141.169C139.155 39.7103 119.082 27.0903 94.6162 27.0903C70.1468 27.0903 50.0776 39.7103 48.0632 55.7766H47.1401C46.2366 55.7766 45.5012 56.5159 45.5012 57.419V70.9927C45.5012 71.8953 46.2366 72.6327 47.1401 72.6327H47.895V132.519H47.1401C46.2366 132.519 45.5012 133.258 45.5012 134.161V147.735C45.5012 148.637 46.2366 149.377 47.1401 149.377H48.2705C49.6512 156.664 54.7595 163.17 62.2771 168.006H126.955C134.469 163.17 139.581 156.664 140.962 149.377H142.042C142.941 149.377 143.68 148.637 143.68 147.735V134.161C143.68 133.258 142.941 132.519 142.042 132.519H141.338V72.6327H142.042Z" fill="#AADBFB"/>
<path d="M118.949 84.1207C117.92 86.4902 117.455 111.909 118.788 116.355C120.56 122.27 132.834 122.27 132.834 122.27V122.013C129.064 121.541 123.486 120.194 122.336 116.355C121.002 111.909 121.472 86.4902 122.5 84.1207C124.088 80.4534 129.271 79.4759 132.834 79.2518V79.2401C132.834 79.2401 121.448 78.3522 118.949 84.1207Z" fill="#85C2F9"/>
<path d="M142.042 72.6327C142.941 72.6327 143.681 71.8953 143.681 70.9927V57.419C143.681 56.5159 142.941 55.7766 142.042 55.7766H141.169C139.155 39.7103 119.082 27.0903 94.6163 27.0903C94.0219 27.0903 93.4312 27.1005 92.8406 27.1157C116.497 27.7079 135.654 40.1003 137.622 55.7766H138.494C139.394 55.7766 140.133 56.5159 140.133 57.419V70.9927C140.133 71.8953 139.394 72.6327 138.494 72.6327H137.79V132.519H138.494C139.394 132.519 140.133 133.258 140.133 134.161V147.735C140.133 148.637 139.394 149.377 138.494 149.377H137.411C136.034 156.664 130.922 163.17 123.408 168.006H126.956C134.469 163.17 139.581 156.664 140.962 149.377H142.042C142.941 149.377 143.681 148.637 143.681 147.735V134.161C143.681 133.258 142.941 132.519 142.042 132.519H141.338V72.6327H142.042Z" fill="#85C2F9"/>
<path d="M137.79 72.6328H47.895L139.542 76.7746L137.79 72.6328Z" fill="#85C2F9"/>
<path d="M137.79 149.523L48.3018 149.542L139.542 153.663L137.79 149.523Z" fill="#85C2F9"/>
<path d="M124.902 58.6609H47.8949C47.406 58.6609 47.0071 58.2607 47.0071 57.773C47.0071 57.2856 47.406 56.8855 47.8949 56.8855H124.902C125.391 56.8855 125.79 57.2856 125.79 57.773C125.79 58.2607 125.391 58.6609 124.902 58.6609Z" fill="#DBF0FD"/>
<path d="M124.902 135.698H47.8949C47.406 135.698 47.0071 135.298 47.0071 134.81C47.0071 134.323 47.406 133.925 47.8949 133.925H124.902C125.391 133.925 125.79 134.323 125.79 134.81C125.79 135.298 125.391 135.698 124.902 135.698Z" fill="#DBF0FD"/>
<path d="M82.1234 35.2754H107.137V18.3601H82.1234V35.2754Z" fill="#AADBFB"/>
<path d="M108.361 20.0948H81.4507C80.7427 20.0948 80.1677 19.5214 80.1677 18.8123V10.2088C80.1677 9.50011 80.7427 8.92627 81.4507 8.92627H108.361C109.069 8.92627 109.644 9.50011 109.644 10.2088V18.8123C109.644 19.5214 109.069 20.0948 108.361 20.0948Z" fill="#304298"/>
<path d="M107.649 24.9352H82.0217C81.5758 24.9352 81.212 24.5738 81.212 24.1283C81.212 23.6828 81.5758 23.3218 82.0217 23.3218H107.649C108.095 23.3218 108.455 23.6828 108.455 24.1283C108.455 24.5738 108.095 24.9352 107.649 24.9352Z" fill="#304298"/>
<path d="M81.4624 19.8148H82.2574V11.2839H81.4624V19.8148Z" fill="#223466"/>
<path d="M83.2343 19.8148H84.0274V11.2839H83.2343V19.8148Z" fill="#223466"/>
<path d="M85.006 19.8148H85.8009V11.2839H85.006V19.8148Z" fill="#223466"/>
<path d="M86.7778 19.8148H87.5727V11.2839H86.7778V19.8148Z" fill="#223466"/>
<path d="M88.5498 19.8148H89.3429V11.2839H88.5498V19.8148Z" fill="#223466"/>
<path d="M90.3176 19.8148H91.1124V11.2839H90.3176V19.8148Z" fill="#223466"/>
<path d="M92.0895 19.8148H92.8843V11.2839H92.0895V19.8148Z" fill="#223466"/>
<path d="M93.8615 19.8148H94.6547V11.2839H93.8615V19.8148Z" fill="#223466"/>
<path d="M95.6332 19.8148H96.4282V11.2839H95.6332V19.8148Z" fill="#223466"/>
<path d="M97.4052 19.8148H98.2001V11.2839H97.4052V19.8148Z" fill="#223466"/>
<path d="M99.1769 19.8148H99.9701V11.2839H99.1769V19.8148Z" fill="#223466"/>
<path d="M100.949 19.8148H101.744V11.2839H100.949V19.8148Z" fill="#223466"/>
<path d="M102.721 19.8148H103.515V11.2839H102.721V19.8148Z" fill="#223466"/>
<path d="M104.492 19.8148H105.286V11.2839H104.492V19.8148Z" fill="#223466"/>
<path d="M106.26 19.8148H107.055V11.2839H106.26V19.8148Z" fill="#223466"/>
<path d="M108.032 19.8148H108.827V11.2839H108.032V19.8148Z" fill="#223466"/>
<path d="M108.083 10.3218H81.5602C81.3685 10.3218 81.212 10.1665 81.212 9.97567C81.212 9.78518 81.3685 9.62988 81.5602 9.62988H108.083C108.275 9.62988 108.431 9.78518 108.431 9.97567C108.431 10.1665 108.275 10.3218 108.083 10.3218Z" fill="#405CC6"/>
<path d="M66.2628 51.146C65.8834 51.146 65.4961 51.0865 65.1167 50.9602C63.2471 50.334 62.1871 48.2058 62.281 46.2348C62.3749 44.2635 63.3958 42.4545 64.5965 40.8849C68.2184 36.1459 73.1311 33.7427 78.7361 32.17C79.3033 32.0096 80.9812 31.2856 82.1234 31.1694V33.2702C80.637 34.5497 78.1376 35.9437 77.5705 36.3958C75.9043 37.7222 74.551 39.4435 73.6631 41.3793C72.6657 43.5431 72.2354 45.958 71.019 48.0052C70.0098 49.7097 68.1598 51.146 66.2628 51.146Z" fill="#DBF0FD"/>
<path d="M82.1234 33.2703V31.1696C82.2251 31.159 82.3229 31.1543 82.4129 31.1543C82.8275 31.1543 83.1325 31.2689 83.2225 31.5728C83.3555 32.0234 82.8626 32.6324 82.1234 33.2703Z" fill="#DBF0FD"/>
<path d="M60.1415 130.821C54.693 130.821 55.4479 122.27 55.4479 122.27V81.5371C55.4479 81.5371 54.9785 76.9737 60.1415 76.8388C60.212 76.8368 60.2823 76.8352 60.3527 76.8352C65.2928 76.8352 65.0698 81.5371 65.0698 81.5371L65.0542 122.27C65.0542 122.27 65.5901 130.821 60.1415 130.821Z" fill="#DBF0FD"/>
<path d="M68.9264 165.76C68.9225 165.76 68.9186 165.76 68.9147 165.76C66.9473 165.755 65.0542 164.891 63.4935 163.686C61.9368 162.483 60.6656 160.952 59.4296 159.418C58.1897 157.887 55.3579 154.185 57.3879 152.235C57.8573 151.79 58.4987 151.616 59.2223 151.616C61.0685 151.616 63.4153 152.757 64.5261 153.385C65.504 153.938 66.4544 154.667 66.8808 155.707C67.2875 156.704 67.1506 157.828 67.2367 158.903C67.3658 160.532 68.0464 162.11 69.1337 163.326C69.431 163.654 69.7595 163.964 69.9316 164.369C70.1038 164.773 70.0685 165.308 69.7165 165.571C69.4975 165.736 69.2041 165.76 68.9264 165.76Z" fill="#DBF0FD"/>
<path d="M139.5 18C129.306 18 121 26.3061 121 36.5C121 46.6939 129.306 55 139.5 55C149.694 55 158 46.6939 158 36.5C158 26.3061 149.694 18 139.5 18ZM146.107 33.6684L138.556 41.2193C138.179 41.4082 137.99 41.5969 137.612 41.5969C137.235 41.5969 136.857 41.4082 136.668 41.2193L132.893 37.4439C132.327 36.8776 132.327 35.9337 132.893 35.3674C133.459 34.801 134.403 34.801 134.969 35.3674L137.801 38.199L144.408 31.5918C144.975 31.0255 145.918 31.0255 146.485 31.5918C146.674 32.3469 146.674 33.1021 146.107 33.6684Z" fill="#ECBD41"/>
</svg>
