<svg width="66" height="96" viewBox="0 0 66 96" fill="none" xmlns="http://www.w3.org/2000/svg">
<g opacity="0.4">
<ellipse cx="33" cy="32.5" rx="33" ry="32.5" fill="#343434"/>
<path d="M33 54.5C45.3921 54.5 55.5 44.6841 55.5 32.5C55.5 20.3159 45.3921 10.5 33 10.5C20.6079 10.5 10.5 20.3159 10.5 32.5C10.5 44.6841 20.6079 54.5 33 54.5Z" fill="#343434" stroke="#2EAFF0" stroke-width="3"/>
<path d="M13.9178 90.247C11.9165 90.247 10.2572 89.5883 8.93983 88.271C7.62249 86.9283 6.96383 85.288 6.96383 83.35C6.96383 81.3993 7.62249 79.7653 8.93983 78.448C10.2445 77.118 11.9038 76.453 13.9178 76.453C15.1212 76.453 16.2295 76.738 17.2428 77.308C18.2688 77.878 19.0668 78.6507 19.6368 79.626L17.7368 80.728C17.3822 80.0693 16.8628 79.55 16.1788 79.17C15.5075 78.7773 14.7538 78.581 13.9178 78.581C12.5118 78.581 11.3592 79.0307 10.4598 79.93C9.58583 80.8167 9.14883 81.9567 9.14883 83.35C9.14883 84.7433 9.58583 85.8833 10.4598 86.77C11.3592 87.6693 12.5118 88.119 13.9178 88.119C14.7538 88.119 15.5138 87.929 16.1978 87.549C16.8818 87.1563 17.3948 86.6307 17.7368 85.972L19.6368 87.055C19.0922 88.0177 18.3005 88.7967 17.2618 89.392C16.2612 89.962 15.1465 90.247 13.9178 90.247ZM20.4048 80.5H28.6698V82.476H25.5728V90H23.5208V82.476H20.4048V80.5ZM37.2112 81.849V80.5H39.2632V90H37.2112V88.632C36.4386 89.7087 35.3302 90.247 33.8862 90.247C32.5816 90.247 31.4669 89.7657 30.5422 88.803C29.6176 87.8403 29.1552 86.656 29.1552 85.25C29.1552 83.844 29.6176 82.6597 30.5422 81.697C31.4669 80.7343 32.5816 80.253 33.8862 80.253C35.3302 80.253 36.4386 80.785 37.2112 81.849ZM32.0622 87.435C32.6322 88.005 33.3479 88.29 34.2092 88.29C35.0706 88.29 35.7862 88.005 36.3562 87.435C36.9262 86.8523 37.2112 86.124 37.2112 85.25C37.2112 84.376 36.9262 83.654 36.3562 83.084C35.7862 82.5013 35.0706 82.21 34.2092 82.21C33.3479 82.21 32.6322 82.5013 32.0622 83.084C31.4922 83.654 31.2072 84.376 31.2072 85.25C31.2072 86.1113 31.4922 86.8397 32.0622 87.435ZM47.032 80.253C48.324 80.253 49.4387 80.7407 50.376 81.716C51.3007 82.6787 51.763 83.8567 51.763 85.25C51.763 86.656 51.3007 87.8403 50.376 88.803C49.4513 89.7657 48.3367 90.247 47.032 90.247C45.6007 90.247 44.4923 89.715 43.707 88.651V93.8H41.655V80.5H43.707V81.868C44.4797 80.7913 45.588 80.253 47.032 80.253ZM44.562 87.435C45.132 88.005 45.8477 88.29 46.709 88.29C47.5703 88.29 48.286 88.005 48.856 87.435C49.426 86.8523 49.711 86.124 49.711 85.25C49.711 84.376 49.426 83.654 48.856 83.084C48.286 82.5013 47.5703 82.21 46.709 82.21C45.8477 82.21 45.132 82.5013 44.562 83.084C43.992 83.654 43.707 84.376 43.707 85.25C43.707 86.1113 43.992 86.8397 44.562 87.435ZM52.2447 80.5H60.5097V82.476H57.4127V90H55.3607V82.476H52.2447V80.5Z" fill="#343434"/>
</g>
</svg>
