<svg width="66" height="96" viewBox="0 0 66 96" fill="none" xmlns="http://www.w3.org/2000/svg">
<ellipse cx="33" cy="32.5" rx="33" ry="32.5" fill="#343434"/>
<path d="M33 54.5C45.3921 54.5 55.5 44.6841 55.5 32.5C55.5 20.3159 45.3921 10.5 33 10.5C20.6079 10.5 10.5 20.3159 10.5 32.5C10.5 44.6841 20.6079 54.5 33 54.5Z" fill="#343434" stroke="#FC3C49" stroke-width="3"/>
<path d="M18.9276 90.247C16.9263 90.247 15.2669 89.5883 13.9496 88.271C12.6323 86.9283 11.9736 85.288 11.9736 83.35C11.9736 81.3993 12.6323 79.7653 13.9496 78.448C15.2543 77.118 16.9136 76.453 18.9276 76.453C20.1309 76.453 21.2393 76.738 22.2526 77.308C23.2786 77.878 24.0766 78.6507 24.6466 79.626L22.7466 80.728C22.3919 80.0693 21.8726 79.55 21.1886 79.17C20.5173 78.7773 19.7636 78.581 18.9276 78.581C17.5216 78.581 16.3689 79.0307 15.4696 79.93C14.5956 80.8167 14.1586 81.9567 14.1586 83.35C14.1586 84.7433 14.5956 85.8833 15.4696 86.77C16.3689 87.6693 17.5216 88.119 18.9276 88.119C19.7636 88.119 20.5236 87.929 21.2076 87.549C21.8916 87.1563 22.4046 86.6307 22.7466 85.972L24.6466 87.055C24.1019 88.0177 23.3103 88.7967 22.2716 89.392C21.2709 89.962 20.1563 90.247 18.9276 90.247ZM25.4146 80.5H33.6796V82.476H30.5826V90H28.5306V82.476H25.4146V80.5ZM42.734 88.803C41.7713 89.7657 40.587 90.247 39.181 90.247C37.775 90.247 36.5907 89.7657 35.628 88.803C34.6527 87.8277 34.165 86.6433 34.165 85.25C34.165 83.8567 34.6527 82.6723 35.628 81.697C36.5907 80.7343 37.775 80.253 39.181 80.253C40.587 80.253 41.7713 80.7343 42.734 81.697C43.7093 82.6723 44.197 83.8567 44.197 85.25C44.197 86.6433 43.7093 87.8277 42.734 88.803ZM36.217 85.25C36.217 86.1113 36.502 86.827 37.072 87.397C37.642 87.967 38.345 88.252 39.181 88.252C40.017 88.252 40.72 87.967 41.29 87.397C41.86 86.827 42.145 86.1113 42.145 85.25C42.145 84.3887 41.86 83.673 41.29 83.103C40.72 82.533 40.017 82.248 39.181 82.248C38.345 82.248 37.642 82.533 37.072 83.103C36.502 83.673 36.217 84.3887 36.217 85.25ZM46.0525 80.5H54.5075V90H52.4555V82.438H48.1045V90H46.0525V80.5Z" fill="#343434"/>
</svg>
