<svg width="170" height="214" viewBox="0 0 170 214" fill="none" xmlns="http://www.w3.org/2000/svg">
    <defs>
        <filter id="filter0_ddd_623_1668" x="0.125" y="2.50737" width="169.75" height="210.843" filterUnits="userSpaceOnUse" color-interpolation-filters="sRGB">
            <feFlood flood-opacity="0" result="BackgroundImageFix"/>
            <feColorMatrix in="SourceAlpha" type="matrix" values="0 0 0 0 0 0 0 0 0 0 0 0 0 0 0 0 0 0 127 0" result="hardAlpha"/>
            <feOffset dy="3.325"/>
            <feGaussianBlur stdDeviation="2.3125"/>
            <feColorMatrix type="matrix" values="0 0 0 0 0 0 0 0 0 0 0 0 0 0 0 0 0 0 0.02275 0"/>
            <feBlend mode="normal" in2="BackgroundImageFix" result="effect1_dropShadow_623_1668"/>
            <feColorMatrix in="SourceAlpha" type="matrix" values="0 0 0 0 0 0 0 0 0 0 0 0 0 0 0 0 0 0 127 0" result="hardAlpha"/>
            <feOffset dy="15.2"/>
            <feGaussianBlur stdDeviation="6.5"/>
            <feColorMatrix type="matrix" values="0 0 0 0 0 0 0 0 0 0 0 0 0 0 0 0 0 0 0.035 0"/>
            <feBlend mode="normal" in2="effect1_dropShadow_623_1668" result="effect2_dropShadow_623_1668"/>
            <feColorMatrix in="SourceAlpha" type="matrix" values="0 0 0 0 0 0 0 0 0 0 0 0 0 0 0 0 0 0 127 0" result="hardAlpha"/>
            <feOffset dy="38.475"/>
            <feGaussianBlur stdDeviation="17.4375"/>
            <feColorMatrix type="matrix" values="0 0 0 0 0 0 0 0 0 0 0 0 0 0 0 0 0 0 0.04725 0"/>
            <feBlend mode="normal" in2="effect2_dropShadow_623_1668" result="effect3_dropShadow_623_1668"/>
            <feBlend mode="normal" in="SourceGraphic" in2="effect3_dropShadow_623_1668" result="shape"/>
        </filter>
        <radialGradient id="paint0_radial_623_1668" cx="0" cy="0" r="1" gradientUnits="userSpaceOnUse" gradientTransform="translate(135 140) rotate(-125.538) scale(172.047 421.654)">
            <stop stop-color="#199FE3"/>
            <stop offset="1" stop-color="#44BFFE"/>
        </radialGradient>
        <radialGradient id="paint1_radial_623_1668" cx="0" cy="0" r="1" gradientUnits="userSpaceOnUse" gradientTransform="translate(135 140) rotate(-125.538) scale(172.047 421.654)">
            <stop stop-color="#199FE3"/>
            <stop offset="1" stop-color="#44BFFE"/>
        </radialGradient>
    </defs>
    <g filter="url(#filter0_ddd_623_1668)">
<path d="M135 90.2545C135 117.727 112.614 140 84.9994 140C57.3857 140 35 117.727 35 90.2545C35 69.3988 63.8169 28.1916 77.6966 9.55364C80.042 6.40422 81.2147 4.82951 82.817 4.20381C84.1704 3.67534 85.8285 3.67533 87.1818 4.20378C88.7842 4.82946 89.9569 6.40416 92.3023 9.55355C106.182 28.1915 135 69.3988 135 90.2545Z" fill="url(#paint0_radial_623_1668)" fill-opacity="0.9"/>
<path d="M134.75 90.2545C134.75 117.588 112.477 139.75 84.9994 139.75C57.5226 139.75 35.25 117.588 35.25 90.2545C35.25 85.0899 37.0362 78.6402 39.9507 71.5627C42.8631 64.4901 46.8927 56.8126 51.359 49.1989C60.2915 33.9718 70.9595 19.0189 77.8971 9.70296C79.0728 8.12426 79.944 6.95488 80.7205 6.10047C81.4941 5.24917 82.1572 4.72986 82.9079 4.43668C84.2028 3.93104 85.796 3.93104 87.0909 4.43666C87.8417 4.72982 88.5047 5.24913 89.2784 6.10042C90.0549 6.95482 90.9261 8.12419 92.1018 9.70287C99.0396 19.0188 109.708 33.9718 118.641 49.1989C123.107 56.8125 127.137 64.4901 130.049 71.5626C132.964 78.6402 134.75 85.0898 134.75 90.2545Z" stroke="url(#paint1_radial_623_1668)" stroke-width="0.5"/>
</g>
<path d="M72 103C72 106.865 67.7469 110 62.5 110C57.2531 110 53 106.865 53 103C53 99.1347 57.2531 96 62.5 96C67.7469 96 72 99.1334 72 103Z" fill="#13C0F9"/>
<path d="M118 103C118 106.865 113.747 110 108.499 110C103.254 110 99 106.865 99 103C99 99.1347 103.254 96 108.499 96C113.747 96 118 99.1334 118 103Z" fill="#13C0F9"/>
<path d="M81 81.0006C81 81.553 80.3281 82 79.5 82C78.6719 82 78 81.553 78 81.0006C78 80.4482 78.6719 80 79.5 80C80.3281 80 81 80.4482 81 81.0006Z" fill="#00ADE5"/>
<path d="M92 85.0006C92 85.553 91.3281 86 90.5013 86C89.6719 86 89 85.553 89 85.0006C89 84.4482 89.6719 84 90.5013 84C91.3281 83.9988 92 84.4482 92 85.0006Z" fill="#00ADE5"/>
<path d="M83 85.4995C83 85.7767 82.7762 86 82.5 86C82.2238 86 82 85.7767 82 85.4995C82 85.2234 82.2238 85 82.5 85C82.7762 85 83 85.2234 83 85.4995Z" fill="#00ADE5"/>
<path d="M87 79.5C87 79.7759 86.5525 80 86 80C85.4475 80 85 79.7759 85 79.5C85 79.2241 85.4475 79 86 79C86.5525 79 87 79.2241 87 79.5Z" fill="#00ADE5"/>
<path d="M62.3994 79.0085C56.8814 78.7775 52.227 83.2864 52.0082 89.0812C51.787 94.8748 56.0826 99.7604 61.6006 99.9914C67.1197 100.224 71.773 95.7123 71.9918 89.9187C72.213 84.1239 67.9174 79.2395 62.3994 79.0085Z" fill="#FDF7EC"/>
<path d="M63.3187 82.0064C58.9046 81.8312 55.1829 85.266 55.0065 89.6826C54.8301 94.0955 58.2661 97.8172 62.6802 97.9936C67.0943 98.1688 70.816 94.734 70.9936 90.3186C71.1688 85.9045 67.7352 82.184 63.3187 82.0064Z" fill="#34295B"/>
<path d="M58.1192 82.0025C56.4644 81.9359 55.069 83.2248 55.0024 84.8807C54.9369 86.5355 56.2248 87.9308 57.8808 87.9974C59.5356 88.0652 60.931 86.7751 60.9976 85.1191C61.0631 83.4644 59.7752 82.0691 58.1192 82.0025Z" fill="#FDF7EC"/>
<path d="M108.601 79.0085C114.119 78.7775 118.773 83.2864 118.992 89.0812C119.213 94.8748 114.917 99.7604 109.399 99.9914C103.88 100.224 99.227 95.7123 99.0082 89.9187C98.787 84.1239 103.083 79.2395 108.601 79.0085Z" fill="#FDF7EC"/>
<path d="M107.681 82.0064C112.097 81.8312 115.817 85.266 115.993 89.6826C116.17 94.0955 112.734 97.8172 108.32 97.9936C103.906 98.1688 100.184 94.734 100.006 90.3186C99.8312 85.9045 103.266 82.184 107.681 82.0064Z" fill="#34295B"/>
<path d="M112.881 82.0025C114.536 81.9359 115.931 83.2248 115.998 84.8807C116.064 86.5355 114.775 87.9308 113.119 87.9974C111.464 88.0652 110.069 86.7751 110.002 85.1191C109.937 83.4644 111.225 82.0691 112.881 82.0025Z" fill="#FDF7EC"/>
<path d="M65.6469 71.0739C65.0875 71.5819 64.1906 71.7546 63.3371 71.9748C62.4715 72.1773 61.6095 72.4031 60.8693 72.6267C60.1279 72.8513 59.2876 73.1391 58.4594 73.4478C57.6312 73.7367 56.7921 74.0876 56.0242 73.9802C55.2864 73.8883 54.7366 73.149 55.1321 71.9172C55.4913 70.7264 56.9645 69.104 59.4178 68.3558C61.8711 67.6209 64.07 68.1333 65.0996 68.9058C66.1797 69.6927 66.1894 70.5936 65.6469 71.0739Z" fill="#34295B"/>
<path d="M105.354 71.594C105.915 72.1861 106.811 72.3865 107.665 72.6438C108.53 72.8791 109.393 73.1415 110.133 73.4026C110.874 73.6625 111.715 73.9986 112.543 74.358C113.371 74.6928 114.211 75.1014 114.977 74.9772C115.716 74.8674 116.264 74.0051 115.867 72.5662C115.505 71.1752 114.03 69.2825 111.578 68.4112C109.123 67.558 106.926 68.1591 105.898 69.0628C104.819 69.9806 104.811 71.0342 105.354 71.594Z" fill="#34295B"/>
<path d="M70.1748 107C69.5808 107 69.0715 106.556 69.0068 105.959C68.9374 105.32 69.4056 104.746 70.0513 104.677C76.0149 104.045 75.6503 99.4668 75.6326 99.2723C75.5726 98.6319 76.0478 98.0649 76.6948 98.0044C77.337 97.9496 77.9145 98.4165 77.9757 99.0557C78.2051 101.495 76.8983 106.292 70.3007 106.991C70.2572 106.998 70.216 107 70.1748 107Z" fill="#34295B"/>
<path d="M84.9007 109C78.9224 109 75.3027 104.134 75.2509 104.061C74.8498 103.507 74.9392 102.706 75.4509 102.271C75.9614 101.838 76.699 101.935 77.1002 102.485C77.3566 102.835 83.4596 110.91 93.1106 102.939C93.6294 102.51 94.367 102.621 94.7587 103.179C95.1528 103.739 95.054 104.538 94.5364 104.966C90.9037 107.968 87.6523 109 84.9007 109Z" fill="#34295B"/>
</svg>
