<svg width="170" height="220" viewBox="0 0 170 220" fill="none" xmlns="http://www.w3.org/2000/svg">
<path d="M42.7816 43.8527C42.7816 49.5913 38.1292 54.2437 32.391 54.2437C26.6523 54.2437 22 49.5913 22 43.8527C22 38.114 32.391 25 32.391 25C32.391 25 42.7816 38.114 42.7816 43.8527Z" fill="#00ADE5"/>
<path d="M140.08 16.4016C140.08 21.394 136.032 25.4415 131.04 25.4415C126.047 25.4415 122 21.394 122 16.4016C122 11.4088 131.04 0 131.04 0C131.04 0 140.08 11.4092 140.08 16.4016Z" fill="#66CBFF"/>
<path d="M31.538 118.084C31.538 120.994 29.1792 123.353 26.2692 123.353C23.3588 123.353 21 120.994 21 118.084C21 115.174 26.2692 108.524 26.2692 108.524C26.2692 108.524 31.538 115.174 31.538 118.084Z" fill="#66CBFF"/>
<path d="M146.315 139.276C146.315 142.186 143.956 144.545 141.045 144.545C138.135 144.545 135.776 142.186 135.776 139.276C135.776 136.365 141.045 129.715 141.045 129.715C141.045 129.715 146.315 136.365 146.315 139.276Z" fill="#00ADE5"/>
<g filter="url(#filter0_ddd_623_1709)">
<path d="M134.489 96.2553C134.489 123.728 112.218 146 84.7446 146C57.2715 146 35 123.728 35 96.2553C35 73.3562 69.5596 25.9264 81.0672 10.7681C82.2689 9.18506 82.8698 8.39356 83.6637 8.08691C84.3433 7.82444 85.146 7.82444 85.8255 8.08691C86.6195 8.39356 87.2203 9.18506 88.4221 10.7681C99.9297 25.9264 134.489 73.3562 134.489 96.2553Z" fill="url(#paint0_radial_623_1709)" fill-opacity="0.9"/>
<path d="M134.239 96.2553C134.239 123.59 112.08 145.75 84.7446 145.75C57.4096 145.75 35.25 123.59 35.25 96.2553C35.25 90.5832 37.393 83.3637 40.8092 75.4683C44.2227 67.5792 48.896 59.0407 53.932 50.7386C64.0038 34.1348 75.5146 18.4956 81.2663 10.9192C81.8701 10.1239 82.3126 9.54149 82.7023 9.11819C83.0896 8.69756 83.4075 8.45387 83.7538 8.32012C84.3754 8.08003 85.1138 8.08003 85.7354 8.32012C86.0817 8.45387 86.3997 8.69756 86.787 9.11819C87.1767 9.54149 87.6191 10.1239 88.223 10.9192C93.9747 18.4956 105.485 34.1348 115.557 50.7386C120.593 59.0407 125.267 67.5792 128.68 75.4683C132.096 83.3637 134.239 90.5832 134.239 96.2553Z" stroke="url(#paint1_radial_623_1709)" stroke-width="0.5"/>
</g>
<path d="M65.8422 79.2201C65.3036 79.7522 64.441 79.9332 63.6196 80.164C62.7884 80.3764 61.9583 80.6127 61.2464 80.8478C60.5322 81.083 59.7238 81.3853 58.9262 81.7093C58.1297 82.0117 57.3224 82.379 56.5834 82.2674C55.8736 82.1699 55.3436 81.3962 55.7251 80.1055C56.0708 78.856 57.4882 77.1558 59.8495 76.3723C62.2098 75.6018 64.3262 76.1393 65.3155 76.9488C66.3569 77.7735 66.3645 78.7184 65.8422 79.2201Z" fill="#34295B"/>
<path d="M105.131 79.259C105.67 79.79 106.534 79.971 107.355 80.2007C108.187 80.411 109.018 80.6472 109.73 80.8813C110.444 81.1143 111.253 81.4155 112.05 81.7385C112.847 82.0397 113.655 82.406 114.394 82.2944C115.104 82.1958 115.631 81.421 115.249 80.1303C114.902 78.8819 113.482 77.1838 111.121 76.4025C108.759 75.6363 106.643 76.176 105.654 76.9866C104.615 77.8124 104.608 78.7562 105.131 79.259Z" fill="#34295B"/>
<path d="M49.8073 94.5711C50.8498 93.8884 51.746 93.4734 52.7582 93.0648C53.7497 92.6747 54.7673 92.3713 55.8011 92.1502C57.8687 91.7189 60.0155 91.6192 62.081 91.9714C62.6044 92.0104 63.105 92.1795 63.61 92.2911C64.1172 92.4103 64.62 92.5306 65.0968 92.7343L66.5402 93.2827L67.8981 93.9925L68.5721 94.3479L69.2006 94.7749L70.4458 95.632C71.239 96.2443 71.9683 96.9335 72.7247 97.5751C72.9512 97.768 72.9794 98.1093 72.7865 98.3358C72.6066 98.5471 72.2999 98.5861 72.0756 98.4344L72.0128 98.3921C71.2228 97.8568 70.4653 97.2803 69.6634 96.7861L68.4226 96.1164L67.806 95.7848L67.1558 95.528L65.864 95.0165L64.5311 94.6697C64.0944 94.531 63.6393 94.4779 63.1885 94.4227C62.7377 94.3739 62.2944 94.2677 61.8404 94.2872C60.0382 94.1713 58.2415 94.4584 56.5521 95.0035C55.7068 95.282 54.8865 95.6266 54.1041 96.0352C53.3444 96.4296 52.5273 96.9541 51.9866 97.4017L51.9292 97.4494C51.1673 98.08 50.0382 97.9728 49.4086 97.2109C48.7779 96.4491 48.8841 95.32 49.647 94.6893C49.6968 94.6459 49.7521 94.6058 49.8073 94.5711Z" fill="#34295B"/>
<path d="M119.729 97.4005C119.189 96.9529 118.372 96.4284 117.612 96.0339C116.83 95.6254 116.008 95.2808 115.164 95.0023C113.474 94.4572 111.677 94.1711 109.876 94.286C109.421 94.2665 108.979 94.3738 108.528 94.4215C108.076 94.4767 107.622 94.5309 107.185 94.6685L105.85 95.0153L104.561 95.5268L103.909 95.7836L103.293 96.1152L102.052 96.786C101.25 97.2791 100.494 97.8556 99.7036 98.392L99.6429 98.4321C99.3958 98.599 99.061 98.534 98.893 98.288C98.738 98.0582 98.7857 97.7505 98.9905 97.5749C99.7469 96.9323 100.475 96.2442 101.269 95.6319L102.515 94.7747L103.143 94.3467L103.817 93.9912L105.175 93.2814L106.618 92.7331C107.095 92.5294 107.599 92.4102 108.104 92.2899C108.611 92.1783 109.112 92.0092 109.634 91.9702C111.7 91.618 113.845 91.7177 115.914 92.149C116.949 92.3701 117.967 92.6735 118.958 93.0636C119.97 93.4722 120.867 93.8872 121.909 94.5699C122.736 95.1117 122.968 96.2214 122.426 97.0493C121.884 97.8762 120.775 98.1081 119.948 97.5663C119.891 97.5305 119.839 97.4904 119.788 97.4492L119.729 97.4005Z" fill="#34295B"/>
<path d="M77.6564 98.0552C77.6564 98.0552 84.9332 99.1746 91.6497 98.0552C98.3674 96.9357 96.6877 109.251 86.6129 111.489C76.5369 113.728 72.0581 98.6154 77.6564 98.0552Z" fill="#34295B"/>
<path d="M84.7447 108.009C84.7447 105.603 82.7941 103.652 80.3884 103.652L75.1261 103.404C75.1261 103.404 78.2601 112.141 84.5735 111.713L84.7447 108.009Z" fill="#FFA096"/>
<path d="M71.5402 108.678C71.5402 112.407 67.3236 115.431 62.1231 115.431C56.9215 115.431 52.705 112.407 52.705 108.678C52.705 104.948 56.9215 101.925 62.1231 101.925C67.3225 101.925 71.5402 104.948 71.5402 108.678Z" fill="#13C0F9"/>
<path d="M117.088 108.678C117.088 112.407 112.871 115.431 107.671 115.431C102.47 115.431 98.2537 112.407 98.2537 108.678C98.2537 104.948 102.47 101.925 107.671 101.925C112.871 101.925 117.088 104.948 117.088 108.678Z" fill="#13C0F9"/>
<path d="M80.4459 87.1473C80.4459 87.6869 79.8368 88.1237 79.0837 88.1237C78.3316 88.1237 77.7215 87.6869 77.7215 87.1473C77.7215 86.6076 78.3316 86.1709 79.0837 86.1709C79.8368 86.172 80.4459 86.6076 80.4459 87.1473Z" fill="#00ADE5"/>
<path d="M91.3161 90.6375C91.3161 91.1772 90.706 91.6139 89.954 91.6139C89.2019 91.6139 88.5918 91.1772 88.5918 90.6375C88.5918 90.0979 89.2019 89.6611 89.954 89.6611C90.706 89.6611 91.3161 90.0979 91.3161 90.6375Z" fill="#00ADE5"/>
<path d="M83.1094 91.6148C83.1094 91.967 82.7106 92.2531 82.2186 92.2531C81.7277 92.2531 81.3278 91.967 81.3278 91.6148C81.3278 91.2616 81.7277 90.9766 82.2186 90.9766C82.7106 90.9766 83.1094 91.2605 83.1094 91.6148Z" fill="#00ADE5"/>
<path d="M86.9911 85.775C86.9911 86.1283 86.5923 86.4133 86.1014 86.4133C85.6094 86.4133 85.2096 86.1283 85.2096 85.775C85.2096 85.4228 85.6094 85.1367 86.1014 85.1367C86.5923 85.1367 86.9911 85.4228 86.9911 85.775Z" fill="#00ADE5"/>
<defs>
<filter id="filter0_ddd_623_1709" x="0.125" y="6.59014" width="169.239" height="212.76" filterUnits="userSpaceOnUse" color-interpolation-filters="sRGB">
<feFlood flood-opacity="0" result="BackgroundImageFix"/>
<feColorMatrix in="SourceAlpha" type="matrix" values="0 0 0 0 0 0 0 0 0 0 0 0 0 0 0 0 0 0 127 0" result="hardAlpha"/>
<feOffset dy="3.325"/>
<feGaussianBlur stdDeviation="2.3125"/>
<feColorMatrix type="matrix" values="0 0 0 0 0 0 0 0 0 0 0 0 0 0 0 0 0 0 0.02275 0"/>
<feBlend mode="normal" in2="BackgroundImageFix" result="effect1_dropShadow_623_1709"/>
<feColorMatrix in="SourceAlpha" type="matrix" values="0 0 0 0 0 0 0 0 0 0 0 0 0 0 0 0 0 0 127 0" result="hardAlpha"/>
<feOffset dy="15.2"/>
<feGaussianBlur stdDeviation="6.5"/>
<feColorMatrix type="matrix" values="0 0 0 0 0 0 0 0 0 0 0 0 0 0 0 0 0 0 0.035 0"/>
<feBlend mode="normal" in2="effect1_dropShadow_623_1709" result="effect2_dropShadow_623_1709"/>
<feColorMatrix in="SourceAlpha" type="matrix" values="0 0 0 0 0 0 0 0 0 0 0 0 0 0 0 0 0 0 127 0" result="hardAlpha"/>
<feOffset dy="38.475"/>
<feGaussianBlur stdDeviation="17.4375"/>
<feColorMatrix type="matrix" values="0 0 0 0 0 0 0 0 0 0 0 0 0 0 0 0 0 0 0.04725 0"/>
<feBlend mode="normal" in2="effect2_dropShadow_623_1709" result="effect3_dropShadow_623_1709"/>
<feBlend mode="normal" in="SourceGraphic" in2="effect3_dropShadow_623_1709" result="shape"/>
</filter>
<radialGradient id="paint0_radial_623_1709" cx="0" cy="0" r="1" gradientUnits="userSpaceOnUse" gradientTransform="translate(134.489 146) rotate(-125.399) scale(171.75 420.225)">
<stop stop-color="#199FE3"/>
<stop offset="1" stop-color="#44BFFE"/>
</radialGradient>
<radialGradient id="paint1_radial_623_1709" cx="0" cy="0" r="1" gradientUnits="userSpaceOnUse" gradientTransform="translate(134.489 146) rotate(-125.399) scale(171.75 420.225)">
<stop stop-color="#199FE3"/>
<stop offset="1" stop-color="#44BFFE"/>
</radialGradient>
</defs>
</svg>
