<svg width="170" height="214" viewBox="0 0 170 214" fill="none" xmlns="http://www.w3.org/2000/svg">
<g filter="url(#filter0_ddd_623_1790)">
<path d="M134.316 90.2552C134.316 117.729 112.084 140 84.6581 140C57.2326 140 35 117.729 35 90.2552C35 68.8136 65.2471 25.8653 78.5284 8.04043C80.5128 5.37722 81.505 4.04561 82.8399 3.52448C83.972 3.08254 85.3442 3.08254 86.4763 3.52448C87.8113 4.04561 88.8035 5.37721 90.7878 8.04043C104.069 25.8653 134.316 68.8136 134.316 90.2552Z" fill="url(#paint0_radial_623_1790)" fill-opacity="0.9"/>
<path d="M134.066 90.2552C134.066 117.591 111.945 139.75 84.6581 139.75C57.3711 139.75 35.25 117.591 35.25 90.2552C35.25 84.9448 37.1251 78.277 40.1645 70.9661C43.2016 63.6605 47.3913 55.7357 51.9991 47.9185C61.2144 32.2843 72.0904 17.0993 78.7289 8.1898C79.724 6.85425 80.4599 5.86705 81.1129 5.14713C81.7632 4.43006 82.3142 3.99807 82.9308 3.75737C84.0045 3.33825 85.3118 3.33825 86.3854 3.75737C87.002 3.99807 87.553 4.43006 88.2034 5.14713C88.8564 5.86705 89.5923 6.85424 90.5874 8.1898C97.2258 17.0993 108.102 32.2843 117.317 47.9185C121.925 55.7357 126.115 63.6605 129.152 70.9661C132.191 78.277 134.066 84.9448 134.066 90.2552Z" stroke="url(#paint1_radial_623_1790)" stroke-width="0.5"/>
</g>
<path d="M62.5583 81.7265C57.1153 81.5091 52.5267 85.7452 52.3097 91.1877C52.0923 96.6307 56.328 101.22 61.7709 101.437C67.2139 101.654 71.8025 97.418 72.02 91.9755C72.2369 86.5326 68.0012 81.944 62.5583 81.7265Z" fill="#FDF7EC"/>
<path d="M63.4425 84.0283C59.1741 83.8576 55.5763 87.1796 55.4056 91.4481C55.2354 95.7165 58.5569 99.3143 62.8254 99.485C67.0934 99.6557 70.6916 96.3337 70.8628 92.0652C71.0325 87.7967 67.711 84.1989 63.4425 84.0283Z" fill="#34295B"/>
<path d="M58.6905 83.8379C57.0473 83.7723 55.6616 85.0519 55.5961 86.6951C55.53 88.3387 56.8096 89.7239 58.4528 89.79C60.0964 89.8551 61.4817 88.5764 61.5477 86.9328C61.6133 85.2896 60.3341 83.9039 58.6905 83.8379Z" fill="#FDF7EC"/>
<path d="M107.965 81.7265C113.408 81.5091 117.997 85.7452 118.214 91.1877C118.432 96.6307 114.195 101.22 108.753 101.437C103.31 101.654 98.7214 97.418 98.504 91.9755C98.2865 86.5326 102.523 81.944 107.965 81.7265Z" fill="#FDF7EC"/>
<path d="M107.081 84.0283C111.349 83.8576 114.947 87.1796 115.118 91.4481C115.289 95.7165 111.967 99.3143 107.699 99.485C103.43 99.6557 99.8323 96.3337 99.6611 92.0652C99.4909 87.7967 102.812 84.1989 107.081 84.0283Z" fill="#34295B"/>
<path d="M111.833 83.8379C113.477 83.7723 114.862 85.0519 114.928 86.6951C114.993 88.3387 113.714 89.7239 112.071 89.79C110.427 89.8551 109.042 88.5764 108.976 86.9328C108.911 85.2896 110.19 83.9039 111.833 83.8379Z" fill="#FDF7EC"/>
<path d="M65.7653 73.6623C65.2175 74.1685 64.3397 74.3414 63.5041 74.5606C62.6567 74.7623 61.8127 74.9879 61.0884 75.2112C60.3616 75.4346 59.5387 75.7221 58.7286 76.0307C57.9175 76.3182 57.096 76.6676 56.3447 76.5617C55.6219 76.469 55.0839 75.7326 55.4713 74.5046C55.8235 73.3165 57.2652 71.6988 59.6667 70.9527C62.0692 70.22 64.2225 70.7317 65.2288 71.5012C66.2876 72.2853 66.2964 73.184 65.7653 73.6623Z" fill="#34295B"/>
<path d="M104.749 73.6707C105.297 74.1776 106.175 74.3492 107.011 74.5673C107.858 74.7684 108.702 74.9929 109.427 75.2155C110.153 75.4382 110.976 75.7247 111.786 76.0332C112.598 76.3201 113.419 76.6685 114.171 76.5611C114.893 76.4679 115.43 75.7297 115.04 74.5007C114.687 73.3117 113.243 71.6939 110.842 70.9502C108.439 70.2198 106.287 70.7344 105.281 71.5066C104.224 72.2926 104.217 73.1924 104.749 73.6707Z" fill="#34295B"/>
<path d="M76.911 92.212C76.911 92.212 84.1454 93.3827 90.8226 92.212C97.5002 91.0417 95.8305 103.919 85.8142 106.26C75.7985 108.601 71.3469 92.7976 76.911 92.212Z" fill="#34295B"/>
<path d="M84.0598 102.753C84.0598 100.333 82.1192 98.3704 79.7253 98.3704L74.4872 98.1196C74.4872 98.1196 77.6063 106.911 83.8891 106.48L84.0598 102.753Z" fill="#FFA096"/>
<path d="M70.8974 103.505C70.8974 107.139 66.6119 110.085 61.3245 110.085C56.0376 110.085 51.7521 107.139 51.7521 103.505C51.7521 99.8695 56.0376 96.9231 61.3245 96.9231C66.6119 96.9231 70.8979 99.8691 70.8974 103.505Z" fill="#13C0F9"/>
<path d="M116.368 103.505C116.368 107.139 112.35 110.085 107.393 110.085C102.437 110.085 98.4188 107.139 98.4188 103.505C98.4188 99.8695 102.437 96.9231 107.393 96.9231C112.35 96.9231 116.368 99.8691 116.368 103.505Z" fill="#13C0F9"/>
<path d="M110.5 7C100.306 7 92 15.3061 92 25.5C92 35.6939 100.306 44 110.5 44C120.694 44 129 35.6939 129 25.5C129 15.3061 120.694 7 110.5 7ZM117.107 22.6684L109.556 30.2193C109.179 30.4082 108.99 30.5969 108.612 30.5969C108.235 30.5969 107.857 30.4082 107.668 30.2193L103.893 26.4439C103.327 25.8776 103.327 24.9337 103.893 24.3674C104.459 23.801 105.403 23.801 105.969 24.3674L108.801 27.199L115.408 20.5918C115.975 20.0255 116.918 20.0255 117.485 20.5918C117.674 21.3469 117.674 22.1021 117.107 22.6684Z" fill="#ECBD41"/>
<defs>
<filter id="filter0_ddd_623_1790" x="0.125" y="1.89312" width="169.066" height="211.457" filterUnits="userSpaceOnUse" color-interpolation-filters="sRGB">
<feFlood flood-opacity="0" result="BackgroundImageFix"/>
<feColorMatrix in="SourceAlpha" type="matrix" values="0 0 0 0 0 0 0 0 0 0 0 0 0 0 0 0 0 0 127 0" result="hardAlpha"/>
<feOffset dy="3.325"/>
<feGaussianBlur stdDeviation="2.3125"/>
<feColorMatrix type="matrix" values="0 0 0 0 0 0 0 0 0 0 0 0 0 0 0 0 0 0 0.02275 0"/>
<feBlend mode="normal" in2="BackgroundImageFix" result="effect1_dropShadow_623_1790"/>
<feColorMatrix in="SourceAlpha" type="matrix" values="0 0 0 0 0 0 0 0 0 0 0 0 0 0 0 0 0 0 127 0" result="hardAlpha"/>
<feOffset dy="15.2"/>
<feGaussianBlur stdDeviation="6.5"/>
<feColorMatrix type="matrix" values="0 0 0 0 0 0 0 0 0 0 0 0 0 0 0 0 0 0 0.035 0"/>
<feBlend mode="normal" in2="effect1_dropShadow_623_1790" result="effect2_dropShadow_623_1790"/>
<feColorMatrix in="SourceAlpha" type="matrix" values="0 0 0 0 0 0 0 0 0 0 0 0 0 0 0 0 0 0 127 0" result="hardAlpha"/>
<feOffset dy="38.475"/>
<feGaussianBlur stdDeviation="17.4375"/>
<feColorMatrix type="matrix" values="0 0 0 0 0 0 0 0 0 0 0 0 0 0 0 0 0 0 0.04725 0"/>
<feBlend mode="normal" in2="effect2_dropShadow_623_1790" result="effect3_dropShadow_623_1790"/>
<feBlend mode="normal" in="SourceGraphic" in2="effect3_dropShadow_623_1790" result="shape"/>
</filter>
<radialGradient id="paint0_radial_623_1790" cx="0" cy="0" r="1" gradientUnits="userSpaceOnUse" gradientTransform="translate(134.316 140) rotate(-125.352) scale(171.65 419.739)">
<stop stop-color="#199FE3"/>
<stop offset="1" stop-color="#44BFFE"/>
</radialGradient>
<radialGradient id="paint1_radial_623_1790" cx="0" cy="0" r="1" gradientUnits="userSpaceOnUse" gradientTransform="translate(134.316 140) rotate(-125.352) scale(171.65 419.739)">
<stop stop-color="#199FE3"/>
<stop offset="1" stop-color="#44BFFE"/>
</radialGradient>
</defs>
</svg>
